<mxfile host="app.diagrams.net" modified="2024-03-25T14:11:12.854Z" agent="Mozilla/5.0 (Windows NT 10.0; Win64; x64) AppleWebKit/537.36 (KHTML, like Gecko) Chrome/120.0.0.0 Safari/537.36" etag="JwBNRyD8PwZiol2dtbMq" version="24.1.0" type="github">
  <diagram id="i7gGXflLBzXJQ1Onad0F" name="第 1 页">
    <mxGraphModel dx="2876" dy="1066" grid="1" gridSize="10" guides="1" tooltips="1" connect="1" arrows="1" fold="1" page="1" pageScale="1" pageWidth="827" pageHeight="1169" math="0" shadow="0">
      <root>
        <mxCell id="0" />
        <mxCell id="1" parent="0" />
        <mxCell id="FEVaPa4jQSWnyuISxAun-16" style="edgeStyle=orthogonalEdgeStyle;rounded=0;orthogonalLoop=1;jettySize=auto;html=1;exitX=0.5;exitY=0;exitDx=0;exitDy=0;entryX=0.5;entryY=1;entryDx=0;entryDy=0;" parent="1" source="6hGsSX0xc1QD5v10wT_n-3" target="96Z2TRk2g2hctk14bLeR-11" edge="1">
          <mxGeometry relative="1" as="geometry" />
        </mxCell>
        <mxCell id="6hGsSX0xc1QD5v10wT_n-3" value="" style="whiteSpace=wrap;html=1;aspect=fixed;fillColor=#dae8fc;strokeColor=#6c8ebf;" parent="1" vertex="1">
          <mxGeometry x="-50" y="1040" width="50" height="50" as="geometry" />
        </mxCell>
        <mxCell id="6hGsSX0xc1QD5v10wT_n-2" value="" style="whiteSpace=wrap;html=1;aspect=fixed;fillColor=#d5e8d4;strokeColor=#82b366;" parent="1" vertex="1">
          <mxGeometry x="-60" y="1050" width="50" height="50" as="geometry" />
        </mxCell>
        <mxCell id="6hGsSX0xc1QD5v10wT_n-1" value="" style="whiteSpace=wrap;html=1;aspect=fixed;fillColor=#f8cecc;strokeColor=#b85450;" parent="1" vertex="1">
          <mxGeometry x="-70" y="1060" width="50" height="50" as="geometry" />
        </mxCell>
        <mxCell id="FEVaPa4jQSWnyuISxAun-14" style="edgeStyle=orthogonalEdgeStyle;rounded=0;orthogonalLoop=1;jettySize=auto;html=1;exitX=0.5;exitY=0;exitDx=0;exitDy=0;entryX=0.5;entryY=1;entryDx=0;entryDy=0;" parent="1" source="96Z2TRk2g2hctk14bLeR-11" target="96Z2TRk2g2hctk14bLeR-17" edge="1">
          <mxGeometry relative="1" as="geometry" />
        </mxCell>
        <mxCell id="96Z2TRk2g2hctk14bLeR-11" value="&lt;font style=&quot;font-size: 18px;&quot;&gt;PatchEmbed&lt;/font&gt;" style="rounded=1;whiteSpace=wrap;html=1;fillColor=#b0e3e6;strokeColor=#0e8088;" parent="1" vertex="1">
          <mxGeometry x="-80" y="970" width="120" height="40" as="geometry" />
        </mxCell>
        <mxCell id="96Z2TRk2g2hctk14bLeR-20" value="" style="edgeStyle=orthogonalEdgeStyle;rounded=0;orthogonalLoop=1;jettySize=auto;html=1;" parent="1" source="96Z2TRk2g2hctk14bLeR-17" target="96Z2TRk2g2hctk14bLeR-19" edge="1">
          <mxGeometry relative="1" as="geometry" />
        </mxCell>
        <mxCell id="FEVaPa4jQSWnyuISxAun-20" style="edgeStyle=orthogonalEdgeStyle;rounded=0;orthogonalLoop=1;jettySize=auto;html=1;exitX=0.5;exitY=0;exitDx=0;exitDy=0;entryX=0;entryY=0.5;entryDx=0;entryDy=0;" parent="1" source="96Z2TRk2g2hctk14bLeR-17" target="FEVaPa4jQSWnyuISxAun-19" edge="1">
          <mxGeometry relative="1" as="geometry" />
        </mxCell>
        <mxCell id="96Z2TRk2g2hctk14bLeR-17" value="&lt;font style=&quot;font-size: 18px;&quot;&gt;SwinStage&lt;/font&gt;" style="rounded=1;whiteSpace=wrap;html=1;fillColor=#fad9d5;strokeColor=#ae4132;" parent="1" vertex="1">
          <mxGeometry x="-80" y="890" width="120" height="40" as="geometry" />
        </mxCell>
        <mxCell id="96Z2TRk2g2hctk14bLeR-284" value="" style="edgeStyle=orthogonalEdgeStyle;rounded=0;orthogonalLoop=1;jettySize=auto;html=1;fontSize=30;" parent="1" source="96Z2TRk2g2hctk14bLeR-19" target="96Z2TRk2g2hctk14bLeR-281" edge="1">
          <mxGeometry relative="1" as="geometry" />
        </mxCell>
        <mxCell id="96Z2TRk2g2hctk14bLeR-19" value="&lt;font style=&quot;font-size: 18px;&quot;&gt;PatchMerging&lt;/font&gt;" style="rounded=1;whiteSpace=wrap;html=1;fillColor=#d5e8d4;strokeColor=#82b366;" parent="1" vertex="1">
          <mxGeometry x="-80" y="790" width="120" height="40" as="geometry" />
        </mxCell>
        <mxCell id="96Z2TRk2g2hctk14bLeR-41" style="edgeStyle=orthogonalEdgeStyle;rounded=0;orthogonalLoop=1;jettySize=auto;html=1;exitX=0.5;exitY=0;exitDx=0;exitDy=0;entryX=0.5;entryY=1;entryDx=0;entryDy=0;" parent="1" source="96Z2TRk2g2hctk14bLeR-21" target="96Z2TRk2g2hctk14bLeR-23" edge="1">
          <mxGeometry relative="1" as="geometry" />
        </mxCell>
        <mxCell id="96Z2TRk2g2hctk14bLeR-21" value="&lt;font style=&quot;font-size: 18px;&quot;&gt;PatchMerging&lt;/font&gt;" style="rounded=1;whiteSpace=wrap;html=1;fillColor=#d5e8d4;strokeColor=#82b366;" parent="1" vertex="1">
          <mxGeometry x="-80" y="550" width="120" height="40" as="geometry" />
        </mxCell>
        <mxCell id="96Z2TRk2g2hctk14bLeR-26" style="edgeStyle=orthogonalEdgeStyle;rounded=0;orthogonalLoop=1;jettySize=auto;html=1;exitX=0.5;exitY=0;exitDx=0;exitDy=0;" parent="1" source="96Z2TRk2g2hctk14bLeR-23" target="96Z2TRk2g2hctk14bLeR-25" edge="1">
          <mxGeometry relative="1" as="geometry" />
        </mxCell>
        <mxCell id="FEVaPa4jQSWnyuISxAun-17" style="edgeStyle=orthogonalEdgeStyle;rounded=0;orthogonalLoop=1;jettySize=auto;html=1;exitX=0.5;exitY=0;exitDx=0;exitDy=0;entryX=0;entryY=0.5;entryDx=0;entryDy=0;" parent="1" source="96Z2TRk2g2hctk14bLeR-23" target="96Z2TRk2g2hctk14bLeR-40" edge="1">
          <mxGeometry relative="1" as="geometry" />
        </mxCell>
        <mxCell id="96Z2TRk2g2hctk14bLeR-23" value="&lt;font style=&quot;font-size: 18px;&quot;&gt;SwinStage&lt;/font&gt;" style="rounded=1;whiteSpace=wrap;html=1;fillColor=#fad9d5;strokeColor=#ae4132;" parent="1" vertex="1">
          <mxGeometry x="-80" y="470" width="120" height="40" as="geometry" />
        </mxCell>
        <mxCell id="FEVaPa4jQSWnyuISxAun-5" value="" style="edgeStyle=orthogonalEdgeStyle;rounded=0;orthogonalLoop=1;jettySize=auto;html=1;" parent="1" source="96Z2TRk2g2hctk14bLeR-25" target="FEVaPa4jQSWnyuISxAun-4" edge="1">
          <mxGeometry relative="1" as="geometry" />
        </mxCell>
        <mxCell id="96Z2TRk2g2hctk14bLeR-25" value="&lt;font style=&quot;font-size: 18px;&quot;&gt;PatchMerging&lt;/font&gt;" style="rounded=1;whiteSpace=wrap;html=1;fillColor=#d5e8d4;strokeColor=#82b366;" parent="1" vertex="1">
          <mxGeometry x="-80" y="310" width="120" height="40" as="geometry" />
        </mxCell>
        <mxCell id="96Z2TRk2g2hctk14bLeR-31" style="edgeStyle=orthogonalEdgeStyle;rounded=0;orthogonalLoop=1;jettySize=auto;html=1;exitX=0.5;exitY=1;exitDx=0;exitDy=0;" parent="1" source="96Z2TRk2g2hctk14bLeR-28" target="96Z2TRk2g2hctk14bLeR-30" edge="1">
          <mxGeometry relative="1" as="geometry" />
        </mxCell>
        <mxCell id="FEVaPa4jQSWnyuISxAun-55" style="edgeStyle=orthogonalEdgeStyle;rounded=0;orthogonalLoop=1;jettySize=auto;html=1;exitX=0.5;exitY=1;exitDx=0;exitDy=0;entryX=0;entryY=0.5;entryDx=0;entryDy=0;" parent="1" source="96Z2TRk2g2hctk14bLeR-28" target="96Z2TRk2g2hctk14bLeR-71" edge="1">
          <mxGeometry relative="1" as="geometry">
            <Array as="points">
              <mxPoint x="190" y="240" />
              <mxPoint x="270" y="240" />
              <mxPoint x="270" y="320" />
            </Array>
          </mxGeometry>
        </mxCell>
        <mxCell id="96Z2TRk2g2hctk14bLeR-28" value="&lt;font style=&quot;font-size: 18px;&quot;&gt;SPPCSPC&lt;/font&gt;" style="rounded=1;whiteSpace=wrap;html=1;fillColor=#ffff88;strokeColor=#36393d;" parent="1" vertex="1">
          <mxGeometry x="130" y="190" width="120" height="40" as="geometry" />
        </mxCell>
        <mxCell id="96Z2TRk2g2hctk14bLeR-30" value="&lt;font style=&quot;font-size: 18px;&quot;&gt;CBS&lt;/font&gt;" style="rounded=1;whiteSpace=wrap;html=1;fillColor=#dae8fc;strokeColor=#6c8ebf;" parent="1" vertex="1">
          <mxGeometry x="140" y="250" width="100" height="40" as="geometry" />
        </mxCell>
        <mxCell id="FEVaPa4jQSWnyuISxAun-47" style="edgeStyle=orthogonalEdgeStyle;rounded=0;orthogonalLoop=1;jettySize=auto;html=1;exitX=0.5;exitY=1;exitDx=0;exitDy=0;entryX=0.5;entryY=0;entryDx=0;entryDy=0;" parent="1" source="96Z2TRk2g2hctk14bLeR-32" target="96Z2TRk2g2hctk14bLeR-37" edge="1">
          <mxGeometry relative="1" as="geometry" />
        </mxCell>
        <mxCell id="96Z2TRk2g2hctk14bLeR-32" value="&lt;font style=&quot;font-size: 18px;&quot;&gt;UPSample&lt;/font&gt;" style="rounded=1;whiteSpace=wrap;html=1;fillColor=#99CCFF;" parent="1" vertex="1">
          <mxGeometry x="130" y="310" width="120" height="40" as="geometry" />
        </mxCell>
        <mxCell id="96Z2TRk2g2hctk14bLeR-50" value="" style="edgeStyle=orthogonalEdgeStyle;rounded=0;orthogonalLoop=1;jettySize=auto;html=1;" parent="1" source="96Z2TRk2g2hctk14bLeR-37" target="96Z2TRk2g2hctk14bLeR-49" edge="1">
          <mxGeometry relative="1" as="geometry" />
        </mxCell>
        <mxCell id="96Z2TRk2g2hctk14bLeR-37" value="&lt;font style=&quot;font-size: 18px;&quot;&gt;cat&lt;/font&gt;" style="ellipse;whiteSpace=wrap;html=1;rounded=1;fillColor=#fff2cc;strokeColor=#d6b656;" parent="1" vertex="1">
          <mxGeometry x="170" y="370" width="40" height="40" as="geometry" />
        </mxCell>
        <mxCell id="slHn6gZgomVeKo_xS-rV-101" style="edgeStyle=orthogonalEdgeStyle;rounded=0;orthogonalLoop=1;jettySize=auto;html=1;exitX=1;exitY=0.5;exitDx=0;exitDy=0;" parent="1" source="96Z2TRk2g2hctk14bLeR-40" target="96Z2TRk2g2hctk14bLeR-37" edge="1">
          <mxGeometry relative="1" as="geometry" />
        </mxCell>
        <mxCell id="96Z2TRk2g2hctk14bLeR-40" value="&lt;font style=&quot;font-size: 18px;&quot;&gt;CBS&lt;/font&gt;" style="rounded=1;whiteSpace=wrap;html=1;fillColor=#dae8fc;strokeColor=#6c8ebf;" parent="1" vertex="1">
          <mxGeometry x="40" y="370" width="100" height="40" as="geometry" />
        </mxCell>
        <mxCell id="96Z2TRk2g2hctk14bLeR-43" value="&lt;font style=&quot;font-size: 18px;&quot;&gt;CBS&lt;/font&gt;" style="rounded=1;whiteSpace=wrap;html=1;fillColor=#dae8fc;strokeColor=#6c8ebf;arcSize=21;" parent="1" vertex="1">
          <mxGeometry x="40" y="610" width="100" height="40" as="geometry" />
        </mxCell>
        <mxCell id="96Z2TRk2g2hctk14bLeR-67" value="" style="edgeStyle=orthogonalEdgeStyle;rounded=0;orthogonalLoop=1;jettySize=auto;html=1;" parent="1" source="96Z2TRk2g2hctk14bLeR-48" target="96Z2TRk2g2hctk14bLeR-66" edge="1">
          <mxGeometry relative="1" as="geometry" />
        </mxCell>
        <mxCell id="96Z2TRk2g2hctk14bLeR-48" value="&lt;font style=&quot;font-size: 18px;&quot;&gt;cat&lt;/font&gt;" style="ellipse;whiteSpace=wrap;html=1;rounded=1;fillColor=#fff2cc;strokeColor=#d6b656;" parent="1" vertex="1">
          <mxGeometry x="170" y="610" width="40" height="40" as="geometry" />
        </mxCell>
        <mxCell id="FEVaPa4jQSWnyuISxAun-54" style="edgeStyle=orthogonalEdgeStyle;rounded=0;orthogonalLoop=1;jettySize=auto;html=1;exitX=0.5;exitY=1;exitDx=0;exitDy=0;entryX=0;entryY=0.5;entryDx=0;entryDy=0;" parent="1" source="96Z2TRk2g2hctk14bLeR-49" target="96Z2TRk2g2hctk14bLeR-89" edge="1">
          <mxGeometry relative="1" as="geometry">
            <Array as="points">
              <mxPoint x="190" y="480" />
              <mxPoint x="270" y="480" />
              <mxPoint x="270" y="560" />
            </Array>
          </mxGeometry>
        </mxCell>
        <mxCell id="96Z2TRk2g2hctk14bLeR-49" value="&lt;font style=&quot;font-size: 18px;&quot;&gt;ELAN-H&lt;/font&gt;" style="rounded=1;whiteSpace=wrap;html=1;fillColor=#cdeb8b;strokeColor=#36393d;" parent="1" vertex="1">
          <mxGeometry x="130" y="430" width="120" height="40" as="geometry" />
        </mxCell>
        <mxCell id="96Z2TRk2g2hctk14bLeR-56" style="edgeStyle=orthogonalEdgeStyle;rounded=0;orthogonalLoop=1;jettySize=auto;html=1;exitX=0.5;exitY=1;exitDx=0;exitDy=0;entryX=0.5;entryY=0;entryDx=0;entryDy=0;" parent="1" source="96Z2TRk2g2hctk14bLeR-49" target="96Z2TRk2g2hctk14bLeR-54" edge="1">
          <mxGeometry relative="1" as="geometry">
            <mxPoint x="191" y="515" as="sourcePoint" />
          </mxGeometry>
        </mxCell>
        <mxCell id="a6rZ2WNsQKCH5PQ9cZ_o-20" style="edgeStyle=orthogonalEdgeStyle;rounded=0;orthogonalLoop=1;jettySize=auto;html=1;exitX=0.5;exitY=1;exitDx=0;exitDy=0;entryX=0.5;entryY=0;entryDx=0;entryDy=0;fontFamily=Tahoma;fontSize=6;" parent="1" source="96Z2TRk2g2hctk14bLeR-60" target="96Z2TRk2g2hctk14bLeR-48" edge="1">
          <mxGeometry relative="1" as="geometry" />
        </mxCell>
        <mxCell id="96Z2TRk2g2hctk14bLeR-60" value="&lt;font style=&quot;font-size: 18px;&quot;&gt;UPsample&lt;/font&gt;" style="rounded=1;whiteSpace=wrap;html=1;fillColor=#99CCFF;" parent="1" vertex="1">
          <mxGeometry x="131.5" y="550" width="120" height="40" as="geometry" />
        </mxCell>
        <mxCell id="FEVaPa4jQSWnyuISxAun-22" style="edgeStyle=orthogonalEdgeStyle;rounded=0;orthogonalLoop=1;jettySize=auto;html=1;exitX=0.5;exitY=1;exitDx=0;exitDy=0;entryX=0.5;entryY=0;entryDx=0;entryDy=0;" parent="1" source="96Z2TRk2g2hctk14bLeR-66" target="FEVaPa4jQSWnyuISxAun-21" edge="1">
          <mxGeometry relative="1" as="geometry" />
        </mxCell>
        <mxCell id="FEVaPa4jQSWnyuISxAun-48" style="edgeStyle=orthogonalEdgeStyle;rounded=0;orthogonalLoop=1;jettySize=auto;html=1;exitX=0.5;exitY=1;exitDx=0;exitDy=0;entryX=0;entryY=0.5;entryDx=0;entryDy=0;" parent="1" source="96Z2TRk2g2hctk14bLeR-66" target="FEVaPa4jQSWnyuISxAun-34" edge="1">
          <mxGeometry relative="1" as="geometry">
            <Array as="points">
              <mxPoint x="191" y="720" />
              <mxPoint x="270" y="720" />
              <mxPoint x="270" y="809" />
            </Array>
          </mxGeometry>
        </mxCell>
        <mxCell id="96Z2TRk2g2hctk14bLeR-66" value="&lt;font style=&quot;font-size: 18px;&quot;&gt;ELAN-H&lt;/font&gt;" style="whiteSpace=wrap;html=1;rounded=1;fillColor=#cdeb8b;strokeColor=#36393d;" parent="1" vertex="1">
          <mxGeometry x="130.5" y="670" width="120" height="40" as="geometry" />
        </mxCell>
        <mxCell id="96Z2TRk2g2hctk14bLeR-96" style="edgeStyle=orthogonalEdgeStyle;rounded=0;orthogonalLoop=1;jettySize=auto;html=1;exitX=0.5;exitY=0;exitDx=0;exitDy=0;entryX=0.5;entryY=1;entryDx=0;entryDy=0;" parent="1" source="96Z2TRk2g2hctk14bLeR-71" target="96Z2TRk2g2hctk14bLeR-94" edge="1">
          <mxGeometry relative="1" as="geometry" />
        </mxCell>
        <mxCell id="96Z2TRk2g2hctk14bLeR-71" value="&lt;font style=&quot;font-size: 18px;&quot;&gt;cat&lt;/font&gt;" style="ellipse;whiteSpace=wrap;html=1;rounded=1;fillColor=#fff2cc;strokeColor=#d6b656;" parent="1" vertex="1">
          <mxGeometry x="347.50000000000006" y="300" width="40" height="40" as="geometry" />
        </mxCell>
        <mxCell id="96Z2TRk2g2hctk14bLeR-84" value="" style="edgeStyle=orthogonalEdgeStyle;rounded=0;orthogonalLoop=1;jettySize=auto;html=1;entryX=0.5;entryY=1;entryDx=0;entryDy=0;" parent="1" source="96Z2TRk2g2hctk14bLeR-81" target="96Z2TRk2g2hctk14bLeR-71" edge="1">
          <mxGeometry relative="1" as="geometry">
            <mxPoint x="366" y="390" as="targetPoint" />
          </mxGeometry>
        </mxCell>
        <mxCell id="96Z2TRk2g2hctk14bLeR-81" value="&lt;font style=&quot;font-size: 18px;&quot;&gt;MPConv&lt;/font&gt;" style="whiteSpace=wrap;html=1;rounded=1;fillColor=#fad9d5;strokeColor=#ae4132;" parent="1" vertex="1">
          <mxGeometry x="307.5" y="380" width="120" height="40" as="geometry" />
        </mxCell>
        <mxCell id="96Z2TRk2g2hctk14bLeR-88" value="" style="edgeStyle=orthogonalEdgeStyle;rounded=0;orthogonalLoop=1;jettySize=auto;html=1;" parent="1" source="96Z2TRk2g2hctk14bLeR-82" target="96Z2TRk2g2hctk14bLeR-81" edge="1">
          <mxGeometry relative="1" as="geometry" />
        </mxCell>
        <mxCell id="slHn6gZgomVeKo_xS-rV-91" style="edgeStyle=orthogonalEdgeStyle;rounded=0;orthogonalLoop=1;jettySize=auto;html=1;exitX=1;exitY=0.5;exitDx=0;exitDy=0;entryX=0;entryY=0.5;entryDx=0;entryDy=0;" parent="1" source="96Z2TRk2g2hctk14bLeR-82" target="96Z2TRk2g2hctk14bLeR-100" edge="1">
          <mxGeometry relative="1" as="geometry" />
        </mxCell>
        <mxCell id="96Z2TRk2g2hctk14bLeR-82" value="&lt;font style=&quot;font-size: 18px;&quot;&gt;ELAN-H&lt;/font&gt;" style="whiteSpace=wrap;html=1;rounded=1;fillColor=#cdeb8b;strokeColor=#36393d;" parent="1" vertex="1">
          <mxGeometry x="307.5" y="455" width="120" height="40" as="geometry" />
        </mxCell>
        <mxCell id="FEVaPa4jQSWnyuISxAun-53" style="edgeStyle=orthogonalEdgeStyle;rounded=0;orthogonalLoop=1;jettySize=auto;html=1;exitX=0.5;exitY=0;exitDx=0;exitDy=0;entryX=0.5;entryY=1;entryDx=0;entryDy=0;" parent="1" source="96Z2TRk2g2hctk14bLeR-83" target="96Z2TRk2g2hctk14bLeR-89" edge="1">
          <mxGeometry relative="1" as="geometry" />
        </mxCell>
        <mxCell id="96Z2TRk2g2hctk14bLeR-83" value="&lt;font style=&quot;font-size: 18px;&quot;&gt;MPConv&lt;/font&gt;" style="whiteSpace=wrap;html=1;rounded=1;fillColor=#fad9d5;strokeColor=#ae4132;" parent="1" vertex="1">
          <mxGeometry x="307.5" y="620" width="120" height="40" as="geometry" />
        </mxCell>
        <mxCell id="96Z2TRk2g2hctk14bLeR-90" value="" style="edgeStyle=orthogonalEdgeStyle;rounded=0;orthogonalLoop=1;jettySize=auto;html=1;" parent="1" source="96Z2TRk2g2hctk14bLeR-89" target="96Z2TRk2g2hctk14bLeR-82" edge="1">
          <mxGeometry relative="1" as="geometry" />
        </mxCell>
        <mxCell id="96Z2TRk2g2hctk14bLeR-89" value="&lt;font style=&quot;font-size: 18px;&quot;&gt;cat&lt;/font&gt;" style="ellipse;whiteSpace=wrap;html=1;rounded=1;fillColor=#fff2cc;strokeColor=#d6b656;" parent="1" vertex="1">
          <mxGeometry x="347.5" y="540" width="40" height="40" as="geometry" />
        </mxCell>
        <mxCell id="96Z2TRk2g2hctk14bLeR-94" value="&lt;font style=&quot;font-size: 18px;&quot;&gt;ELAN-H&lt;/font&gt;" style="rounded=1;whiteSpace=wrap;html=1;fillColor=#cdeb8b;strokeColor=#36393d;" parent="1" vertex="1">
          <mxGeometry x="307.5" y="200" width="120" height="40" as="geometry" />
        </mxCell>
        <mxCell id="96Z2TRk2g2hctk14bLeR-99" style="edgeStyle=orthogonalEdgeStyle;rounded=0;orthogonalLoop=1;jettySize=auto;html=1;entryX=0;entryY=0.5;entryDx=0;entryDy=0;exitX=1;exitY=0.5;exitDx=0;exitDy=0;" parent="1" source="96Z2TRk2g2hctk14bLeR-94" target="96Z2TRk2g2hctk14bLeR-98" edge="1">
          <mxGeometry relative="1" as="geometry">
            <mxPoint x="418" y="210" as="sourcePoint" />
          </mxGeometry>
        </mxCell>
        <mxCell id="96Z2TRk2g2hctk14bLeR-98" value="&lt;font style=&quot;font-size: 18px;&quot;&gt;REP&lt;/font&gt;" style="rounded=1;whiteSpace=wrap;html=1;fillColor=#fad7ac;strokeColor=#b46504;" parent="1" vertex="1">
          <mxGeometry x="480" y="205" width="60" height="30" as="geometry" />
        </mxCell>
        <mxCell id="96Z2TRk2g2hctk14bLeR-100" value="&lt;font style=&quot;font-size: 18px;&quot;&gt;REP&lt;/font&gt;" style="rounded=1;whiteSpace=wrap;html=1;fillColor=#fad7ac;strokeColor=#b46504;" parent="1" vertex="1">
          <mxGeometry x="480" y="460" width="60" height="30" as="geometry" />
        </mxCell>
        <mxCell id="96Z2TRk2g2hctk14bLeR-101" value="&lt;font style=&quot;font-size: 18px;&quot;&gt;REP&lt;/font&gt;" style="rounded=1;whiteSpace=wrap;html=1;fillColor=#fad7ac;strokeColor=#b46504;" parent="1" vertex="1">
          <mxGeometry x="477" y="715" width="60" height="30" as="geometry" />
        </mxCell>
        <mxCell id="96Z2TRk2g2hctk14bLeR-141" value="" style="edgeStyle=orthogonalEdgeStyle;rounded=0;orthogonalLoop=1;jettySize=auto;html=1;exitX=1;exitY=0.5;exitDx=0;exitDy=0;" parent="1" source="96Z2TRk2g2hctk14bLeR-98" target="96Z2TRk2g2hctk14bLeR-117" edge="1">
          <mxGeometry relative="1" as="geometry">
            <mxPoint x="601" y="220.0000000000001" as="sourcePoint" />
          </mxGeometry>
        </mxCell>
        <mxCell id="96Z2TRk2g2hctk14bLeR-119" value="" style="edgeStyle=orthogonalEdgeStyle;rounded=0;orthogonalLoop=1;jettySize=auto;html=1;exitX=1;exitY=0.5;exitDx=0;exitDy=0;" parent="1" source="96Z2TRk2g2hctk14bLeR-100" target="96Z2TRk2g2hctk14bLeR-118" edge="1">
          <mxGeometry relative="1" as="geometry">
            <mxPoint x="601" y="433.5" as="sourcePoint" />
          </mxGeometry>
        </mxCell>
        <mxCell id="96Z2TRk2g2hctk14bLeR-121" value="" style="edgeStyle=orthogonalEdgeStyle;rounded=0;orthogonalLoop=1;jettySize=auto;html=1;exitX=1;exitY=0.5;exitDx=0;exitDy=0;" parent="1" source="96Z2TRk2g2hctk14bLeR-101" target="96Z2TRk2g2hctk14bLeR-120" edge="1">
          <mxGeometry relative="1" as="geometry">
            <mxPoint x="598" y="735" as="sourcePoint" />
          </mxGeometry>
        </mxCell>
        <mxCell id="96Z2TRk2g2hctk14bLeR-117" value="" style="shape=cube;whiteSpace=wrap;html=1;boundedLbl=1;backgroundOutline=1;darkOpacity=0.05;darkOpacity2=0.1;size=10;fontStyle=1;fillColor=#f8cecc;strokeColor=#b85450;" parent="1" vertex="1">
          <mxGeometry x="631" y="195" width="50" height="50" as="geometry" />
        </mxCell>
        <mxCell id="96Z2TRk2g2hctk14bLeR-118" value="" style="shape=cube;whiteSpace=wrap;html=1;boundedLbl=1;backgroundOutline=1;darkOpacity=0.05;darkOpacity2=0.1;size=10;fillColor=#d5e8d4;strokeColor=#82b366;" parent="1" vertex="1">
          <mxGeometry x="629" y="450" width="50" height="50" as="geometry" />
        </mxCell>
        <mxCell id="96Z2TRk2g2hctk14bLeR-120" value="" style="shape=cube;whiteSpace=wrap;html=1;boundedLbl=1;backgroundOutline=1;darkOpacity=0.05;darkOpacity2=0.1;size=10;fillColor=#dae8fc;strokeColor=#6c8ebf;" parent="1" vertex="1">
          <mxGeometry x="629" y="705" width="50" height="50" as="geometry" />
        </mxCell>
        <mxCell id="96Z2TRk2g2hctk14bLeR-285" value="" style="edgeStyle=orthogonalEdgeStyle;rounded=0;orthogonalLoop=1;jettySize=auto;html=1;fontSize=30;" parent="1" source="96Z2TRk2g2hctk14bLeR-281" target="96Z2TRk2g2hctk14bLeR-21" edge="1">
          <mxGeometry relative="1" as="geometry" />
        </mxCell>
        <mxCell id="FEVaPa4jQSWnyuISxAun-15" style="edgeStyle=orthogonalEdgeStyle;rounded=0;orthogonalLoop=1;jettySize=auto;html=1;exitX=0.5;exitY=0;exitDx=0;exitDy=0;entryX=0;entryY=0.5;entryDx=0;entryDy=0;" parent="1" source="96Z2TRk2g2hctk14bLeR-281" target="96Z2TRk2g2hctk14bLeR-43" edge="1">
          <mxGeometry relative="1" as="geometry" />
        </mxCell>
        <mxCell id="96Z2TRk2g2hctk14bLeR-281" value="&lt;font style=&quot;font-size: 18px;&quot;&gt;SwinStage&lt;/font&gt;" style="rounded=1;whiteSpace=wrap;html=1;fillColor=#fad9d5;strokeColor=#ae4132;" parent="1" vertex="1">
          <mxGeometry x="-80" y="710" width="120" height="40" as="geometry" />
        </mxCell>
        <mxCell id="96Z2TRk2g2hctk14bLeR-370" value="&lt;font style=&quot;font-size: 14px;&quot;&gt;20*20*85&lt;/font&gt;" style="text;html=1;strokeColor=none;fillColor=none;align=center;verticalAlign=middle;whiteSpace=wrap;rounded=0;strokeWidth=1;fontSize=12;" parent="1" vertex="1">
          <mxGeometry x="626" y="240" width="56" height="30" as="geometry" />
        </mxCell>
        <mxCell id="96Z2TRk2g2hctk14bLeR-371" value="&lt;font style=&quot;font-size: 14px;&quot;&gt;40*40*85&lt;/font&gt;" style="text;html=1;strokeColor=none;fillColor=none;align=center;verticalAlign=middle;whiteSpace=wrap;rounded=0;strokeWidth=1;fontSize=12;" parent="1" vertex="1">
          <mxGeometry x="631" y="500" width="56" height="30" as="geometry" />
        </mxCell>
        <mxCell id="96Z2TRk2g2hctk14bLeR-372" value="&lt;font style=&quot;font-size: 14px;&quot;&gt;80*80*85&lt;/font&gt;" style="text;html=1;strokeColor=none;fillColor=none;align=center;verticalAlign=middle;whiteSpace=wrap;rounded=0;strokeWidth=1;fontSize=12;" parent="1" vertex="1">
          <mxGeometry x="632" y="759" width="56" height="30" as="geometry" />
        </mxCell>
        <mxCell id="a6rZ2WNsQKCH5PQ9cZ_o-3" style="edgeStyle=orthogonalEdgeStyle;rounded=0;orthogonalLoop=1;jettySize=auto;html=1;exitX=1;exitY=0.5;exitDx=0;exitDy=0;entryX=0;entryY=0.5;entryDx=0;entryDy=0;fontFamily=Tahoma;fontSize=6;" parent="1" source="96Z2TRk2g2hctk14bLeR-43" target="96Z2TRk2g2hctk14bLeR-48" edge="1">
          <mxGeometry relative="1" as="geometry">
            <mxPoint x="153.5" y="635" as="sourcePoint" />
          </mxGeometry>
        </mxCell>
        <mxCell id="a6rZ2WNsQKCH5PQ9cZ_o-12" style="edgeStyle=orthogonalEdgeStyle;rounded=0;orthogonalLoop=1;jettySize=auto;html=1;exitX=0.5;exitY=1;exitDx=0;exitDy=0;entryX=0.5;entryY=0;entryDx=0;entryDy=0;fontFamily=Tahoma;fontSize=6;" parent="1" source="96Z2TRk2g2hctk14bLeR-54" target="96Z2TRk2g2hctk14bLeR-60" edge="1">
          <mxGeometry relative="1" as="geometry">
            <mxPoint x="190" y="576" as="sourcePoint" />
          </mxGeometry>
        </mxCell>
        <mxCell id="a6rZ2WNsQKCH5PQ9cZ_o-15" style="edgeStyle=orthogonalEdgeStyle;rounded=0;orthogonalLoop=1;jettySize=auto;html=1;exitX=0.5;exitY=1;exitDx=0;exitDy=0;entryX=0.5;entryY=0;entryDx=0;entryDy=0;fontFamily=Tahoma;fontSize=6;" parent="1" source="96Z2TRk2g2hctk14bLeR-30" target="96Z2TRk2g2hctk14bLeR-32" edge="1">
          <mxGeometry relative="1" as="geometry">
            <mxPoint x="190" y="357" as="sourcePoint" />
          </mxGeometry>
        </mxCell>
        <mxCell id="a6rZ2WNsQKCH5PQ9cZ_o-16" style="edgeStyle=orthogonalEdgeStyle;rounded=0;orthogonalLoop=1;jettySize=auto;html=1;exitX=0.5;exitY=1;exitDx=0;exitDy=0;fontFamily=Tahoma;fontSize=6;" parent="1" edge="1">
          <mxGeometry relative="1" as="geometry">
            <mxPoint x="240" y="360.5" as="sourcePoint" />
            <mxPoint x="240" y="360.5" as="targetPoint" />
          </mxGeometry>
        </mxCell>
        <mxCell id="FEVaPa4jQSWnyuISxAun-6" style="edgeStyle=orthogonalEdgeStyle;rounded=0;orthogonalLoop=1;jettySize=auto;html=1;exitX=0.5;exitY=0;exitDx=0;exitDy=0;entryX=0.5;entryY=0;entryDx=0;entryDy=0;" parent="1" source="FEVaPa4jQSWnyuISxAun-4" target="96Z2TRk2g2hctk14bLeR-28" edge="1">
          <mxGeometry relative="1" as="geometry" />
        </mxCell>
        <mxCell id="FEVaPa4jQSWnyuISxAun-4" value="&lt;font style=&quot;font-size: 18px;&quot;&gt;SwinStage&lt;/font&gt;" style="rounded=1;whiteSpace=wrap;html=1;fillColor=#fad9d5;strokeColor=#ae4132;" parent="1" vertex="1">
          <mxGeometry x="-80" y="230" width="120" height="40" as="geometry" />
        </mxCell>
        <mxCell id="FEVaPa4jQSWnyuISxAun-26" style="edgeStyle=orthogonalEdgeStyle;rounded=0;orthogonalLoop=1;jettySize=auto;html=1;exitX=1;exitY=0.5;exitDx=0;exitDy=0;entryX=0;entryY=0.5;entryDx=0;entryDy=0;" parent="1" source="FEVaPa4jQSWnyuISxAun-19" target="FEVaPa4jQSWnyuISxAun-24" edge="1">
          <mxGeometry relative="1" as="geometry" />
        </mxCell>
        <mxCell id="FEVaPa4jQSWnyuISxAun-19" value="&lt;font style=&quot;font-size: 18px;&quot;&gt;CBS&lt;/font&gt;" style="rounded=1;whiteSpace=wrap;html=1;fillColor=#dae8fc;strokeColor=#6c8ebf;arcSize=21;" parent="1" vertex="1">
          <mxGeometry x="40" y="850" width="100" height="40" as="geometry" />
        </mxCell>
        <mxCell id="FEVaPa4jQSWnyuISxAun-25" style="edgeStyle=orthogonalEdgeStyle;rounded=0;orthogonalLoop=1;jettySize=auto;html=1;exitX=0.5;exitY=1;exitDx=0;exitDy=0;entryX=0.5;entryY=0;entryDx=0;entryDy=0;" parent="1" source="FEVaPa4jQSWnyuISxAun-21" target="FEVaPa4jQSWnyuISxAun-23" edge="1">
          <mxGeometry relative="1" as="geometry" />
        </mxCell>
        <mxCell id="FEVaPa4jQSWnyuISxAun-21" value="&lt;font style=&quot;font-size: 18px;&quot;&gt;CBS&lt;/font&gt;" style="rounded=1;whiteSpace=wrap;html=1;fillColor=#dae8fc;strokeColor=#6c8ebf;" parent="1" vertex="1">
          <mxGeometry x="131.5" y="730" width="120" height="40" as="geometry" />
        </mxCell>
        <mxCell id="FEVaPa4jQSWnyuISxAun-50" style="edgeStyle=orthogonalEdgeStyle;rounded=0;orthogonalLoop=1;jettySize=auto;html=1;exitX=0.5;exitY=1;exitDx=0;exitDy=0;entryX=0.5;entryY=0;entryDx=0;entryDy=0;" parent="1" source="FEVaPa4jQSWnyuISxAun-23" target="FEVaPa4jQSWnyuISxAun-24" edge="1">
          <mxGeometry relative="1" as="geometry" />
        </mxCell>
        <mxCell id="FEVaPa4jQSWnyuISxAun-23" value="&lt;font style=&quot;font-size: 18px;&quot;&gt;UPsample&lt;/font&gt;" style="rounded=1;whiteSpace=wrap;html=1;fillColor=#99CCFF;" parent="1" vertex="1">
          <mxGeometry x="130" y="790" width="120" height="40" as="geometry" />
        </mxCell>
        <mxCell id="FEVaPa4jQSWnyuISxAun-39" style="edgeStyle=orthogonalEdgeStyle;rounded=0;orthogonalLoop=1;jettySize=auto;html=1;exitX=0.5;exitY=1;exitDx=0;exitDy=0;entryX=0.5;entryY=0;entryDx=0;entryDy=0;" parent="1" source="FEVaPa4jQSWnyuISxAun-24" target="FEVaPa4jQSWnyuISxAun-37" edge="1">
          <mxGeometry relative="1" as="geometry" />
        </mxCell>
        <mxCell id="FEVaPa4jQSWnyuISxAun-24" value="&lt;font style=&quot;font-size: 18px;&quot;&gt;cat&lt;/font&gt;" style="ellipse;whiteSpace=wrap;html=1;rounded=1;fillColor=#fff2cc;strokeColor=#d6b656;" parent="1" vertex="1">
          <mxGeometry x="170.5" y="850" width="40" height="40" as="geometry" />
        </mxCell>
        <mxCell id="FEVaPa4jQSWnyuISxAun-32" style="edgeStyle=orthogonalEdgeStyle;rounded=0;orthogonalLoop=1;jettySize=auto;html=1;exitX=1;exitY=0.5;exitDx=0;exitDy=0;entryX=0;entryY=0.5;entryDx=0;entryDy=0;" parent="1" source="FEVaPa4jQSWnyuISxAun-28" target="96Z2TRk2g2hctk14bLeR-101" edge="1">
          <mxGeometry relative="1" as="geometry" />
        </mxCell>
        <mxCell id="FEVaPa4jQSWnyuISxAun-33" style="edgeStyle=orthogonalEdgeStyle;rounded=0;orthogonalLoop=1;jettySize=auto;html=1;exitX=0.5;exitY=0;exitDx=0;exitDy=0;entryX=0.5;entryY=1;entryDx=0;entryDy=0;" parent="1" source="FEVaPa4jQSWnyuISxAun-28" target="96Z2TRk2g2hctk14bLeR-83" edge="1">
          <mxGeometry relative="1" as="geometry" />
        </mxCell>
        <mxCell id="FEVaPa4jQSWnyuISxAun-28" value="&lt;font style=&quot;font-size: 18px;&quot;&gt;ELAN-H&lt;/font&gt;" style="whiteSpace=wrap;html=1;rounded=1;fillColor=#cdeb8b;strokeColor=#36393d;" parent="1" vertex="1">
          <mxGeometry x="307.5" y="710" width="120" height="40" as="geometry" />
        </mxCell>
        <mxCell id="FEVaPa4jQSWnyuISxAun-29" value="&lt;font style=&quot;font-size: 18px;&quot;&gt;REP&lt;/font&gt;" style="rounded=1;whiteSpace=wrap;html=1;fillColor=#fad7ac;strokeColor=#b46504;" parent="1" vertex="1">
          <mxGeometry x="480" y="925" width="60" height="30" as="geometry" />
        </mxCell>
        <mxCell id="FEVaPa4jQSWnyuISxAun-30" value="" style="shape=cube;whiteSpace=wrap;html=1;boundedLbl=1;backgroundOutline=1;darkOpacity=0.05;darkOpacity2=0.1;size=10;fillColor=#e1d5e7;strokeColor=#9673a6;" parent="1" vertex="1">
          <mxGeometry x="631" y="920" width="50" height="50" as="geometry" />
        </mxCell>
        <mxCell id="FEVaPa4jQSWnyuISxAun-31" value="&lt;font style=&quot;font-size: 14px;&quot;&gt;160*160*85&lt;/font&gt;" style="text;html=1;strokeColor=none;fillColor=none;align=center;verticalAlign=middle;whiteSpace=wrap;rounded=0;strokeWidth=1;fontSize=12;" parent="1" vertex="1">
          <mxGeometry x="632" y="970" width="56" height="30" as="geometry" />
        </mxCell>
        <mxCell id="FEVaPa4jQSWnyuISxAun-36" style="edgeStyle=orthogonalEdgeStyle;rounded=0;orthogonalLoop=1;jettySize=auto;html=1;exitX=0.5;exitY=0;exitDx=0;exitDy=0;entryX=0.5;entryY=1;entryDx=0;entryDy=0;" parent="1" source="FEVaPa4jQSWnyuISxAun-34" target="FEVaPa4jQSWnyuISxAun-28" edge="1">
          <mxGeometry relative="1" as="geometry" />
        </mxCell>
        <mxCell id="FEVaPa4jQSWnyuISxAun-34" value="&lt;font style=&quot;font-size: 18px;&quot;&gt;cat&lt;/font&gt;" style="ellipse;whiteSpace=wrap;html=1;rounded=1;fillColor=#fff2cc;strokeColor=#d6b656;" parent="1" vertex="1">
          <mxGeometry x="347.49999999999994" y="789" width="40" height="40" as="geometry" />
        </mxCell>
        <mxCell id="FEVaPa4jQSWnyuISxAun-38" style="edgeStyle=orthogonalEdgeStyle;rounded=0;orthogonalLoop=1;jettySize=auto;html=1;exitX=1;exitY=0.5;exitDx=0;exitDy=0;entryX=0;entryY=0.5;entryDx=0;entryDy=0;" parent="1" source="FEVaPa4jQSWnyuISxAun-37" target="FEVaPa4jQSWnyuISxAun-29" edge="1">
          <mxGeometry relative="1" as="geometry" />
        </mxCell>
        <mxCell id="FEVaPa4jQSWnyuISxAun-42" style="edgeStyle=orthogonalEdgeStyle;rounded=0;orthogonalLoop=1;jettySize=auto;html=1;exitX=1;exitY=0.5;exitDx=0;exitDy=0;entryX=0.5;entryY=1;entryDx=0;entryDy=0;" parent="1" source="FEVaPa4jQSWnyuISxAun-37" target="FEVaPa4jQSWnyuISxAun-41" edge="1">
          <mxGeometry relative="1" as="geometry" />
        </mxCell>
        <mxCell id="FEVaPa4jQSWnyuISxAun-37" value="&lt;font style=&quot;font-size: 18px;&quot;&gt;ELAN-H&lt;/font&gt;" style="whiteSpace=wrap;html=1;rounded=1;fillColor=#cdeb8b;strokeColor=#36393d;" parent="1" vertex="1">
          <mxGeometry x="130" y="920" width="120" height="40" as="geometry" />
        </mxCell>
        <mxCell id="FEVaPa4jQSWnyuISxAun-40" style="edgeStyle=orthogonalEdgeStyle;rounded=0;orthogonalLoop=1;jettySize=auto;html=1;exitX=1;exitY=0.5;exitDx=0;exitDy=0;entryX=0;entryY=0;entryDx=0;entryDy=19.5;entryPerimeter=0;" parent="1" source="FEVaPa4jQSWnyuISxAun-29" target="FEVaPa4jQSWnyuISxAun-30" edge="1">
          <mxGeometry relative="1" as="geometry" />
        </mxCell>
        <mxCell id="FEVaPa4jQSWnyuISxAun-51" style="edgeStyle=orthogonalEdgeStyle;rounded=0;orthogonalLoop=1;jettySize=auto;html=1;exitX=0.5;exitY=0;exitDx=0;exitDy=0;entryX=0.5;entryY=1;entryDx=0;entryDy=0;" parent="1" source="FEVaPa4jQSWnyuISxAun-41" target="FEVaPa4jQSWnyuISxAun-34" edge="1">
          <mxGeometry relative="1" as="geometry" />
        </mxCell>
        <mxCell id="FEVaPa4jQSWnyuISxAun-41" value="&lt;font style=&quot;font-size: 18px;&quot;&gt;MPConv&lt;/font&gt;" style="whiteSpace=wrap;html=1;rounded=1;fillColor=#fad9d5;strokeColor=#ae4132;" parent="1" vertex="1">
          <mxGeometry x="307.5" y="860" width="120" height="40" as="geometry" />
        </mxCell>
        <mxCell id="96Z2TRk2g2hctk14bLeR-54" value="&lt;font style=&quot;font-size: 18px;&quot;&gt;CBS&lt;/font&gt;" style="rounded=1;whiteSpace=wrap;html=1;fillColor=#dae8fc;strokeColor=#6c8ebf;" parent="1" vertex="1">
          <mxGeometry x="130" y="487.5" width="120" height="40" as="geometry" />
        </mxCell>
        <mxCell id="x8fKT3QOkoq2ebKm7lnA-1" value="" style="rounded=1;whiteSpace=wrap;html=1;strokeWidth=15;perimeterSpacing=0;strokeColor=#6c8ebf;fillColor=#dae8fc;opacity=30;shadow=0;" parent="1" vertex="1">
          <mxGeometry x="-120" y="210" width="200" height="820" as="geometry" />
        </mxCell>
        <mxCell id="x8fKT3QOkoq2ebKm7lnA-2" value="" style="rounded=1;whiteSpace=wrap;html=1;strokeWidth=15;perimeterSpacing=0;strokeColor=#d6b656;fillColor=#fff2cc;opacity=30;shadow=0;glass=0;" parent="1" vertex="1">
          <mxGeometry x="25" y="840" width="695" height="170" as="geometry" />
        </mxCell>
        <mxCell id="vbwK8NRNkBbFvUObGbrt-1" value="" style="rounded=0;whiteSpace=wrap;html=1;fillColor=#dae8fc;strokeColor=#6c8ebf;" vertex="1" parent="1">
          <mxGeometry x="570" y="80" width="40" height="40" as="geometry" />
        </mxCell>
        <mxCell id="vbwK8NRNkBbFvUObGbrt-2" value="" style="rounded=0;whiteSpace=wrap;html=1;fillColor=#fff2cc;strokeColor=#d6b656;" vertex="1" parent="1">
          <mxGeometry x="570" y="140" width="40" height="40" as="geometry" />
        </mxCell>
        <mxCell id="vbwK8NRNkBbFvUObGbrt-3" value="&lt;font style=&quot;font-size: 24px;&quot;&gt;SwinT&lt;/font&gt;" style="text;html=1;align=center;verticalAlign=middle;whiteSpace=wrap;rounded=0;" vertex="1" parent="1">
          <mxGeometry x="626" y="85" width="60" height="30" as="geometry" />
        </mxCell>
        <mxCell id="vbwK8NRNkBbFvUObGbrt-4" value="&lt;font style=&quot;font-size: 24px;&quot;&gt;FHD&lt;/font&gt;" style="text;html=1;align=center;verticalAlign=middle;whiteSpace=wrap;rounded=0;" vertex="1" parent="1">
          <mxGeometry x="619" y="145" width="60" height="30" as="geometry" />
        </mxCell>
      </root>
    </mxGraphModel>
  </diagram>
</mxfile>
